<svg xmlns="http://www.w3.org/2000/svg" width="49" height="42" viewBox="0 0 49 42" fill="none"><path d="M24.4728 6.70089C23.7678 6.70089 23.1022 7.02467 22.6465 7.58922C22.3969 7.89839 22.4443 8.35216 22.7523 8.60273C23.0603 8.85329 23.5123 8.80564 23.7619 8.49656C23.9437 8.27126 24.2029 8.14214 24.4728 8.14214C24.7537 8.14214 25.0151 8.26915 25.1899 8.49061C25.3316 8.66998 25.5413 8.76356 25.7529 8.76356C25.909 8.76356 26.0664 8.71264 26.1983 8.60763C26.5089 8.36052 26.5612 7.90723 26.3148 7.59536C25.8662 7.02688 25.1947 6.70089 24.4728 6.70089Z" fill="#7B4BD5"></path><path d="M27.7138 6.40055C27.8555 6.58003 28.0651 6.67361 28.2768 6.67351C28.4329 6.67351 28.5903 6.62259 28.7223 6.51757C29.0329 6.27036 29.0851 5.81707 28.8387 5.50529C27.7722 4.15481 26.177 3.38033 24.4621 3.38033C22.7912 3.38033 21.2096 4.1527 20.1227 5.49934C19.8731 5.80852 19.9205 6.26229 20.2285 6.51287C20.5364 6.76344 20.9884 6.71578 21.238 6.4067C22.0512 5.39941 23.2262 4.8216 24.4621 4.8216C25.7361 4.82141 26.9213 5.39701 27.7138 6.40055Z" fill="#7B4BD5"></path><path d="M17.8311 4.30143C18.139 4.552 18.591 4.50435 18.8406 4.19526C20.2534 2.44491 22.2986 1.44108 24.4517 1.44108C26.669 1.44108 28.7318 2.44279 30.1111 4.18931C30.2528 4.36878 30.4624 4.46236 30.6741 4.46227C30.8303 4.46227 30.9876 4.41134 31.1196 4.30633C31.4302 4.05912 31.4824 3.60582 31.236 3.29405C29.5828 1.2006 27.11 0 24.4517 0C21.8636 0 19.4118 1.19848 17.7252 3.28809C17.4757 3.59708 17.5231 4.05095 17.8311 4.30143Z" fill="#7B4BD5"></path><path d="M26.3389 29.1379C25.7491 28.6074 24.9564 28.3538 24.1641 28.4412C22.8801 28.5833 21.8463 29.6227 21.706 30.9126C21.62 31.7044 21.8725 32.4974 22.3988 33.088C22.4478 33.1429 22.4758 33.2236 22.4758 33.3094V35.0524C22.4758 36.1643 23.3574 37.0852 24.4411 37.1052C24.4537 37.1054 24.4663 37.1055 24.4789 37.1055C25.0069 37.1055 25.5037 36.9019 25.8812 36.5297C26.2678 36.1485 26.4808 35.639 26.4808 35.0951V33.3094C26.4808 33.2235 26.5083 33.1434 26.5562 33.0899C27.0149 32.5761 27.2675 31.9134 27.2675 31.224C27.2675 30.429 26.929 29.6686 26.3389 29.1379ZM25.4871 32.128C25.2021 32.4473 25.0453 32.8668 25.0453 33.3093V35.095C25.0453 35.2491 24.985 35.3933 24.8755 35.5013C24.766 35.6092 24.6195 35.6681 24.4674 35.6641C24.1608 35.6584 23.9114 35.384 23.9114 35.0523V33.3093C23.9114 32.8673 23.7541 32.4474 23.4687 32.1271C23.2098 31.8364 23.0906 31.4606 23.1332 31.0688C23.201 30.445 23.7008 29.9424 24.3216 29.8738C24.7146 29.8297 25.0907 29.9501 25.3812 30.2113C25.6677 30.4691 25.8321 30.8381 25.8321 31.2239C25.832 31.5578 25.7096 31.8789 25.4871 32.128Z" fill="#7B4BD5"></path><path d="M28.8784 40.5588H15.8032C15.3787 40.5588 15.0335 40.2123 15.0335 39.7862V37.7897C15.0335 37.3916 14.7121 37.0691 14.3157 37.0691C13.9193 37.0691 13.5979 37.3916 13.5979 37.7897V39.7862C13.5979 41.0068 14.5872 42 15.8032 42H28.8785C29.275 42 29.5963 41.6775 29.5963 41.2794C29.5963 40.8814 29.2749 40.5588 28.8784 40.5588Z" fill="#7B4BD5"></path><path d="M46.6959 16.6021C45.6761 16.6021 44.8094 17.271 44.507 18.1946H38.6743C38.482 18.1946 38.2976 18.2721 38.1627 18.4098L35.9399 20.6776H32.831V18.8583C32.831 18.8258 32.8301 18.7936 32.8297 18.7612H35.0139C35.4103 18.7612 35.7317 18.4387 35.7317 18.0406V14.0402C36.6517 13.7366 37.318 12.8665 37.318 11.8427C37.318 10.5673 36.2844 9.52963 35.0139 9.52963C33.7434 9.52963 32.7098 10.5673 32.7098 11.8427C32.7098 12.8665 33.3761 13.7366 34.2961 14.0402V17.3201H32.6896C31.9679 13.4286 28.5607 10.473 24.4783 10.473C20.3959 10.473 16.9888 13.4286 16.267 17.3201H14.7038V14.0402C15.6238 13.7366 16.2901 12.8665 16.2901 11.8427C16.2901 10.5673 15.2565 9.52963 13.986 9.52963C12.7155 9.52963 11.6819 10.5673 11.6819 11.8427C11.6819 12.8665 12.3482 13.7366 13.2682 14.0402V18.0406C13.2682 18.4387 13.5896 18.7612 13.986 18.7612H16.1269C16.1265 18.7936 16.1257 18.8258 16.1257 18.8583V20.6776H13.06L10.8372 18.4098C10.7023 18.272 10.518 18.1946 10.3256 18.1946H4.49305C4.19063 17.271 3.32392 16.6021 2.30409 16.6021C1.03361 16.6021 0 17.6397 0 18.9151C0 20.1905 1.03361 21.2281 2.30409 21.2281C3.32392 21.2281 4.19063 20.5592 4.49305 19.6357H10.025L12.2477 21.9036C12.3827 22.0413 12.567 22.1188 12.7594 22.1188H16.1258V24.033H15.8032C14.5871 24.033 13.5979 25.0261 13.5979 26.2469V27.1935H9.8241C9.42769 27.1935 9.10631 27.516 9.10631 27.914V29.4376H6.43548C6.16014 28.4696 5.27161 27.7586 4.2202 27.7586C2.94972 27.7586 1.91611 28.7962 1.91611 30.0716C1.91611 31.347 2.94972 32.3847 4.2202 32.3847C5.20797 32.3847 6.05237 31.7573 6.3793 30.8786H9.8241C10.2205 30.8786 10.5419 30.5561 10.5419 30.1581V28.6345H13.5978V32.0444H10.3669C9.97053 32.0444 9.64915 32.3669 9.64915 32.7649V34.6472C9.64915 34.6651 9.65059 34.6827 9.65183 34.7002C8.73048 35.003 8.06284 35.8738 8.06284 36.8985C8.06284 38.174 9.09646 39.2116 10.3669 39.2116C11.6374 39.2116 12.671 38.174 12.671 36.8985C12.671 35.8738 12.0034 35.003 11.082 34.7002C11.0833 34.6826 11.0847 34.6651 11.0847 34.6472V33.4855H13.5978V34.4509C13.5978 34.849 13.9192 35.1715 14.3156 35.1715C14.712 35.1715 15.0334 34.849 15.0334 34.4509V26.2468C15.0334 25.8207 15.3787 25.474 15.8031 25.474H33.1535C33.5779 25.474 33.9231 25.8207 33.9231 26.2468V39.7862C33.9231 40.2123 33.5778 40.5588 33.1535 40.5588H32.2201C31.8237 40.5588 31.5023 40.8814 31.5023 41.2794C31.5023 41.6775 31.8237 42 32.2201 42H33.1535C34.3695 42 35.3587 41.0068 35.3587 39.7862V33.4855H37.9151V34.6472C37.9151 34.6651 37.9165 34.6827 37.9178 34.7002C36.9964 35.003 36.3288 35.8738 36.3288 36.8985C36.3288 38.174 37.3624 39.2116 38.6329 39.2116C39.9034 39.2116 40.937 38.174 40.937 36.8985C40.937 35.8738 40.2693 35.003 39.348 34.7002C39.3492 34.6826 39.3507 34.6651 39.3507 34.6472V32.7649C39.3507 32.3669 39.0293 32.0444 38.6329 32.0444H35.3587V28.6345H38.4579V30.1581C38.4579 30.5561 38.7793 30.8786 39.1757 30.8786H42.6205C42.9474 31.7573 43.7918 32.3847 44.7796 32.3847C46.0501 32.3847 47.0837 31.347 47.0837 30.0716C47.0837 28.7962 46.0501 27.7586 44.7796 27.7586C43.7282 27.7586 42.8397 28.4696 42.5643 29.4376H39.8936V27.914C39.8936 27.516 39.5722 27.1935 39.1758 27.1935H35.3588V26.2469C35.3588 25.0261 34.3695 24.033 33.1536 24.033H32.831V22.1188H36.2406C36.433 22.1188 36.6173 22.0413 36.7523 21.9036L38.975 19.6357H44.507C44.8094 20.5592 45.6761 21.2281 46.6959 21.2281C47.9664 21.2281 49 20.1905 49 18.9151C48.9999 17.6397 47.9663 16.6021 46.6959 16.6021ZM34.1454 11.8428C34.1454 11.362 34.535 10.9709 35.0139 10.9709C35.4928 10.9709 35.8824 11.362 35.8824 11.8428C35.8824 12.3236 35.4928 12.7146 35.0139 12.7146C34.535 12.7146 34.1454 12.3235 34.1454 11.8428ZM13.986 12.7146C13.5071 12.7146 13.1175 12.3236 13.1175 11.8428C13.1175 11.362 13.5071 10.9709 13.986 10.9709C14.4649 10.9709 14.8545 11.362 14.8545 11.8428C14.8545 12.3236 14.4649 12.7146 13.986 12.7146ZM2.30409 19.787C1.82519 19.787 1.43557 19.3959 1.43557 18.9151C1.43557 18.4344 1.82519 18.0432 2.30409 18.0432C2.783 18.0432 3.17261 18.4344 3.17261 18.9151C3.17261 19.3959 2.783 19.787 2.30409 19.787ZM4.2202 30.9435C3.74129 30.9435 3.35168 30.5524 3.35168 30.0716C3.35168 29.5908 3.74129 29.1998 4.2202 29.1998C4.69911 29.1998 5.08872 29.5908 5.08872 30.0716C5.08872 30.5524 4.69911 30.9435 4.2202 30.9435ZM11.2354 36.8986C11.2354 37.3794 10.8457 37.7705 10.3668 37.7705C9.88793 37.7705 9.49832 37.3794 9.49832 36.8986C9.49832 36.4178 9.88793 36.0268 10.3668 36.0268C10.8457 36.0268 11.2354 36.4178 11.2354 36.8986ZM31.3954 24.033H29.6432V18.8584C29.6432 15.9993 27.3263 13.6733 24.4783 13.6733C21.7146 13.6733 19.4484 15.8428 19.3192 18.6122C19.3006 19.0097 19.6066 19.347 20.0026 19.3658C20.3976 19.3834 20.7346 19.0772 20.7532 18.6796C20.8465 16.6804 22.4828 15.1145 24.4784 15.1145C26.5347 15.1145 28.2078 16.7939 28.2078 18.8584V24.033H20.7491V21.9928C20.7491 21.5948 20.4277 21.2722 20.0313 21.2722C19.6349 21.2722 19.3135 21.5948 19.3135 21.9928V24.033H17.5614V18.8584C17.5614 15.0294 20.6643 11.9144 24.4784 11.9144C28.2925 11.9144 31.3955 15.0294 31.3955 18.8584L31.3954 24.033ZM38.633 36.0267C39.1119 36.0267 39.5015 36.4177 39.5015 36.8985C39.5015 37.3793 39.1119 37.7704 38.633 37.7704C38.1541 37.7704 37.7645 37.3793 37.7645 36.8985C37.7645 36.4177 38.1542 36.0267 38.633 36.0267ZM44.7798 29.1998C45.2587 29.1998 45.6483 29.5908 45.6483 30.0716C45.6483 30.5524 45.2587 30.9435 44.7798 30.9435C44.3009 30.9435 43.9113 30.5524 43.9113 30.0716C43.9113 29.5908 44.3009 29.1998 44.7798 29.1998ZM46.6959 19.787C46.217 19.787 45.8274 19.3959 45.8274 18.9151C45.8274 18.4344 46.217 18.0432 46.6959 18.0432C47.1748 18.0432 47.5644 18.4344 47.5644 18.9151C47.5644 19.3959 47.1747 19.787 46.6959 19.787Z" fill="#7B4BD5"></path></svg>