<svg xmlns="http://www.w3.org/2000/svg" width="38" height="42" viewBox="0 0 38 42" fill="none"><path d="M37.6644 9.26719L19.2582 0.0611542C19.095 -0.0203847 18.905 -0.0203847 18.7419 0.0611542L0.335632 9.26719C0.130405 9.36981 0 9.58514 0 9.82122V32.1787C0 32.4148 0.130405 32.6302 0.335632 32.7328L18.7418 41.9388C18.8234 41.9796 18.9117 42 19 42C19.0883 42 19.1766 41.9796 19.2582 41.9388L37.6644 32.7328C37.8696 32.6302 38 32.4148 38 32.1787V9.82131C38 9.58506 37.8695 9.36989 37.6644 9.26719ZM19 1.29843L36.0403 9.82122L31.1007 12.2918C31.0694 12.2671 31.0364 12.2443 31.0001 12.2262L14.0756 3.76142L19 1.29843ZM12.7345 4.45704L29.75 12.9674L26.265 14.7105L9.25653 6.20357L12.7345 4.45704ZM30.1481 14.1346V20.5778L26.8929 22.206V15.7627L30.1481 14.1346ZM36.8123 31.7927L19.5938 40.4045V19.4134L23.701 17.3592C23.9963 17.2114 24.1202 16.8437 23.9776 16.5376C23.835 16.2317 23.48 16.1033 23.1846 16.2511L19 18.3441L17.3534 17.5205C17.058 17.3726 16.7031 17.5011 16.5605 17.807C16.4179 18.113 16.5417 18.4808 16.837 18.6286L18.4062 19.4134V40.4045L1.18766 31.7925V10.8014L14.2994 17.3594C14.3826 17.4011 14.4706 17.4208 14.5571 17.4208C14.7779 17.4208 14.9899 17.2926 15.0923 17.0729C15.2349 16.7669 15.1111 16.3991 14.8157 16.2513L1.95972 9.82122L7.85882 6.87073L25.697 15.7927C25.6996 15.7965 25.7025 15.7998 25.7052 15.8035V23.1862C25.7052 23.398 25.8103 23.5947 25.9834 23.7074C26.0795 23.7699 26.1891 23.8015 26.2991 23.8015C26.3872 23.8015 26.4754 23.7812 26.5572 23.7403L31.0001 21.5181C31.2053 21.4155 31.3357 21.2003 31.3357 20.9641V13.5407L36.8123 10.8015V31.7927Z" fill="#7B4BD5"></path><path d="M6.08825 29.4065L3.38712 28.0555C3.09163 27.9076 2.73676 28.0361 2.59416 28.3421C2.45156 28.648 2.5754 29.0159 2.87073 29.1636L5.57186 30.5146C5.65508 30.5562 5.74304 30.5759 5.82958 30.5759C6.05033 30.5759 6.26236 30.4478 6.36474 30.228C6.50742 29.922 6.38359 29.5543 6.08825 29.4065Z" fill="#7B4BD5"></path><path d="M8.57418 27.73L3.39084 25.1375C3.09543 24.9898 2.74048 25.1181 2.59788 25.4241C2.45537 25.7301 2.5792 26.0979 2.87453 26.2457L8.05787 28.8382C8.14108 28.8798 8.22905 28.8995 8.31559 28.8995C8.53633 28.8995 8.74837 28.7714 8.85075 28.5517C8.99335 28.2455 8.86951 27.8777 8.57418 27.73Z" fill="#7B4BD5"></path></svg>