<svg xmlns="http://www.w3.org/2000/svg" width="52" height="42" viewBox="0 0 52 42" fill="none"><path d="M51.0759 4.52594C50.4021 3.71431 49.4586 3.21855 48.4189 3.13006L11.8 0.0141258C10.7602 -0.0743655 9.74925 0.25507 8.9527 0.941577C8.1594 1.62539 7.67362 2.58203 7.58405 3.63637L6.84731 10.6801H3.90557C1.75205 10.6801 0 12.4655 0 14.6601V38.02C0 40.2145 1.75205 42 3.90557 42H40.652C42.8057 42 44.5577 40.2145 44.5577 38.02V34.2306L45.8617 34.3415C45.9717 34.3508 46.081 34.3555 46.1895 34.3555C48.1972 34.3555 49.9087 32.7814 50.0787 30.7064L51.9862 7.42763C52.0729 6.36811 51.7496 5.33768 51.0759 4.52594ZM3.90557 12.75H40.652C41.6855 12.75 42.5265 13.6069 42.5265 14.6601V16.7887H2.03124V14.6601C2.03124 13.6069 2.87207 12.75 3.90557 12.75ZM2.03124 18.8586H42.5265V23.1527H2.03124V18.8586ZM40.652 39.93H3.90557C2.87207 39.93 2.03124 39.0732 2.03124 38.02V25.2227H42.5265V38.02C42.5265 39.0732 41.6855 39.93 40.652 39.93ZM49.9619 7.2553L48.0545 30.5341C47.9685 31.5837 47.0604 32.3667 46.0307 32.2787L44.5577 32.1533V14.6601C44.5577 12.4655 42.8057 10.6801 40.652 10.6801H8.89013L9.60503 3.84502C9.60584 3.83716 9.60655 3.8294 9.60716 3.82143C9.69318 2.77185 10.6007 1.98898 11.631 2.07696L48.25 5.19289C48.749 5.23532 49.2018 5.47326 49.5251 5.86283C49.8484 6.2524 50.0036 6.74681 49.9619 7.2553Z" fill="#7B4BD5"></path><path d="M38.276 28.2999H28.5015C27.9405 28.2999 27.4858 28.7632 27.4858 29.3349V35.8335C27.4858 36.4051 27.9405 36.8684 28.5015 36.8684H38.276C38.837 36.8684 39.2917 36.4051 39.2917 35.8335V29.3349C39.2917 28.7632 38.837 28.2999 38.276 28.2999ZM37.2604 34.7985H29.5171V30.3698H37.2604V34.7985Z" fill="#7B4BD5"></path></svg>