<svg xmlns="http://www.w3.org/2000/svg" width="204" height="46" viewBox="0 0 204 46" fill="none"><path d="M154.429 10.1123C154.781 10.1552 155.142 10.1552 155.545 10.1724C155.503 9.94061 155.494 9.78608 155.46 9.7775C151.777 9.17654 148.094 8.58416 144.376 7.9832C144.411 7.86301 144.488 7.58829 144.582 7.31356C145.261 5.38191 145.956 3.45025 146.617 1.51001C146.875 0.754518 146.437 0.0934629 145.784 0.308091C145.449 0.419698 145.115 0.85754 144.977 1.21812C144.213 3.24421 143.492 5.29606 142.797 7.3479C142.565 8.01754 142.196 8.22359 141.492 8.22359C137.912 8.24076 134.46 8.96191 131.129 10.2583C130.829 10.3699 130.52 10.5244 130.305 10.7476C130.185 10.8678 130.176 11.2026 130.245 11.3743C130.297 11.5031 130.58 11.6147 130.76 11.6061C130.983 11.5975 131.198 11.4516 131.421 11.3743C133.353 10.7047 135.259 9.91486 137.233 9.40834C138.753 9.02201 140.358 8.99625 142.093 8.79021C141.938 9.19371 141.895 9.33107 141.826 9.45985C140.041 13.2116 137.869 16.7229 135.233 19.9423C133.49 22.0714 131.567 24.0117 129.181 25.4454C127.824 26.261 119.539 30.9055 117.925 30.6651C116.492 30.4505 115.839 29.7723 115.607 28.3643C115.556 28.0295 115.324 27.729 115.178 27.4114C114.826 27.5831 114.431 27.7118 114.131 27.9436C113.204 28.682 112.337 29.5061 111.392 30.2101C111.135 30.399 110.602 30.4505 110.336 30.3131C110.13 30.2015 110.001 29.6607 110.07 29.3602C110.456 27.5917 111.452 26.2094 113.032 25.3166C113.805 24.8873 114.277 25.1449 114.8 25.9776C114.878 26.1064 115.092 26.1579 115.281 26.261C115.461 24.9818 114.869 24.2091 113.762 24.1404C112.491 24.0546 111.469 24.6384 110.714 25.5484C109.984 26.4241 109.083 26.8791 108.053 27.2311C107.434 27.4457 106.833 27.7033 106.224 27.9351C103.322 29.034 97.6731 29.5834 94.5824 29.9869C92.9942 30.1929 92.5134 29.9354 91.8438 28.5017C91.6635 28.1239 91.4918 27.7462 91.2858 27.3856C90.5131 25.9948 89.191 25.4797 87.7315 26.1322C86.9245 26.4928 86.1776 27.0079 85.465 27.5401C84.5808 28.2098 83.7738 28.9653 82.7521 29.8324C82.9152 29.3945 82.9753 29.1713 83.0784 28.9653C83.5763 27.9522 84.1 26.9478 84.5722 25.9261C84.6752 25.7029 84.6752 25.2479 84.5378 25.1363C84.3232 24.9732 83.9111 24.9131 83.6536 24.9989C83.3874 25.0934 83.1986 25.4282 82.9668 25.6514C82.6577 25.9433 82.383 26.3468 82.0138 26.4928C79.1034 27.6861 76.1931 28.9138 73.2312 29.9612C71.849 30.4505 70.338 30.6565 68.87 30.8111C67.2302 30.9828 66.2515 29.9526 66.4318 28.3042C66.5176 27.4972 66.8954 26.7246 67.1014 25.9261C67.1787 25.6257 67.1358 25.2994 67.1443 24.9904C66.7408 25.0505 66.1055 24.9732 65.9768 25.1964C65.496 26.0292 64.9981 26.9306 64.8264 27.8578C64.4744 29.8753 65.3844 31.0858 67.4191 31.3348C68.518 31.4636 69.6855 31.4035 70.7844 31.206C74.5018 30.5449 77.9359 29.0254 81.3613 27.4972C81.6361 27.377 81.9108 27.2654 82.2284 27.1366C81.8679 28.4416 81.5245 29.6092 81.2497 30.7939C81.1896 31.0429 81.43 31.3605 81.5245 31.6438C81.782 31.5408 82.0911 31.4893 82.2885 31.3176C83.4561 30.253 84.555 29.1112 85.7483 28.0896C86.418 27.5144 87.1992 27.0422 87.9891 26.6645C88.8562 26.2524 89.1223 26.4412 89.4314 27.3599C90.4272 30.296 91.0883 30.751 94.1875 30.6222C94.5996 30.605 95.0203 30.5707 95.4324 30.5106C98.9265 29.9783 104.919 29.1112 108.207 27.875C108.49 27.7719 108.774 27.6603 109.16 27.523C109.031 28.0037 108.937 28.3214 108.86 28.6305C108.671 29.4632 108.739 30.2702 109.452 30.8197C110.156 31.3605 110.929 31.1631 111.633 30.7596C112.019 30.5364 112.379 30.2702 112.731 29.9955C113.272 29.5662 113.796 29.1112 114.388 28.6305C114.706 30.2359 115.685 31.0343 117.11 31.2146C117.951 31.3176 118.844 31.3262 119.685 31.1974C122.003 30.8283 130.692 25.3681 132.4 23.8485C135.731 20.8781 138.221 17.2552 140.418 13.409C140.942 12.4904 141.432 11.546 141.938 10.6103C141.99 10.9365 141.929 11.2198 141.852 11.4945C139.8 18.6374 137.697 25.763 135.714 32.9316C134.701 36.5717 133.902 40.2719 133.756 44.0665C133.748 44.3842 133.954 44.968 134.117 44.9851C134.778 45.0624 134.581 44.4614 134.641 44.0923C135.061 41.2764 135.302 38.4089 135.903 35.6359C137.843 26.7331 140.788 18.1222 143.741 9.51136C143.93 8.94474 144.239 8.85889 144.728 8.91898C147.948 9.3139 151.167 9.70882 154.387 10.0951L154.429 10.1123Z" fill="#592FA3"></path><path d="M64.4915 23.5481C65.3243 23.445 66.2257 23.342 67.0156 23.5481C67.5994 23.694 67.9685 23.6768 68.3549 23.2819C68.8099 22.8183 69.0502 22.2689 68.6811 21.6765C68.5094 21.4104 68.1316 21.0841 67.8741 21.1099C67.565 21.1356 67.213 21.4533 67.0156 21.7366C66.8267 22.0027 66.8181 22.3976 66.7237 22.7496C60.9974 22.9042 55.9837 25.205 51.2189 27.7634C48.7979 24.9217 46.3855 22.2431 44.1534 19.4186C42.8742 17.796 41.7238 16.0189 40.8223 14.1645C39.3199 11.091 39.8951 8.13774 41.9556 5.45917C43.2948 3.71639 45.029 2.42862 47.0809 1.70747C48.6606 1.15802 50.3518 0.763104 52.0173 0.651497C54.1121 0.50555 55.0651 2.10238 54.1465 3.99111C53.803 4.6951 53.1592 5.23596 52.7127 5.89702C52.5324 6.15457 52.5324 6.5409 52.4552 6.85855C52.79 6.7727 53.3137 6.79845 53.4167 6.59241C54.0177 5.45059 54.6787 4.29159 54.9964 3.05534C55.3999 1.48426 54.4641 0.342432 52.8415 0.0677075C52.438 -0.000973555 52.0088 -0.0095587 51.5967 0.00761158C48.652 0.102048 46.0077 1.13226 43.6039 2.75486C38.3584 6.30052 37.2852 11.7778 40.8824 16.9976C42.1959 18.9035 43.6983 20.6806 45.175 22.4749C46.7804 24.4237 48.4545 26.3211 50.1801 28.3386C49.7079 28.6305 49.4246 28.785 49.1585 28.9739C46.6516 30.7338 44.0761 32.3993 41.6723 34.2881C39.4401 36.0394 37.4741 38.0913 36.3151 40.7613C35.0274 43.7317 36.0747 45.3285 39.3028 45.2599C43.3807 45.1654 47.0036 43.7575 50.0685 41.0875C53.3223 38.2458 54.1465 34.1765 52.4037 30.2187C52.1375 29.6006 51.8027 29.0168 51.4851 28.3901C52.1118 28.0467 52.6784 27.729 53.2622 27.4285C56.825 25.6085 60.4909 24.0546 64.5001 23.5481H64.4915ZM48.9524 40.6668C46.3254 42.9247 43.2863 44.3584 39.7835 44.6417C39.1654 44.6932 38.5301 44.6417 37.9205 44.5387C36.6499 44.3241 36.0146 43.4999 36.4525 42.3066C36.9333 40.9845 37.5428 39.6452 38.3927 38.5463C41.037 35.1466 44.4968 32.6655 48.0853 30.3561C48.8065 29.8925 49.562 29.4718 50.3518 28.9996C52.9274 32.8715 52.8158 37.3272 48.9439 40.6582L48.9524 40.6668Z" fill="#592FA3"></path><path d="M168.088 22.1058C167.779 22.2259 167.462 22.3204 167.161 22.4577C165.015 23.4107 162.912 24.4495 160.722 25.2994C158.525 26.1494 156.232 26.7246 153.837 26.5185C152.292 26.3811 151.639 25.6514 151.407 24.1404C151.365 23.8314 151.141 23.3077 151.004 23.3077C150.678 23.3077 150.309 23.5137 150.034 23.7369C149.064 24.5182 148.179 25.411 147.158 26.1064C146.334 26.6645 145.698 26.2266 145.887 25.2479C146.239 23.4364 147.269 22.0285 148.901 21.1614C149.502 20.8437 150.257 20.7665 150.558 21.728C150.609 21.8997 150.841 22.0027 151.038 22.1916C151.382 20.9124 150.746 20.0968 149.596 19.9766C147.304 19.7448 144.419 23.3592 144.642 25.3252C144.797 26.716 145.853 27.3856 147.132 26.7761C147.896 26.4155 148.557 25.8231 149.244 25.3166C149.562 25.0848 149.828 24.8015 150.197 24.4667C150.558 26.0206 151.493 26.8276 152.824 27.0164C153.957 27.1796 155.151 27.2139 156.284 27.068C160.456 26.5185 164.174 24.7242 167.822 22.7496C167.985 22.6638 168.097 22.4921 168.234 22.3633L168.097 22.0972L168.088 22.1058Z" fill="#592FA3"></path><path d="M13.1524 20.4317C10.7572 20.4317 8.80835 17.9677 8.80835 14.9372C8.80835 11.9066 12.809 7.8115 12.9807 7.63121L13.1524 7.45093L13.3241 7.63121C13.4958 7.80292 17.4965 11.9667 17.4965 14.9372C17.4965 17.9076 15.5477 20.4317 13.1524 20.4317ZM13.1524 8.15491C12.3798 8.99625 9.28912 12.499 9.28912 14.9372C9.28912 17.7016 11.0233 19.9509 13.1524 19.9509C15.2815 19.9509 17.0157 17.7016 17.0157 14.9372C17.0157 12.499 13.9337 8.99625 13.1524 8.15491Z" fill="#592FA3"></path><path d="M7.52916 23.4536C6.44744 23.4536 5.33137 23.1446 4.30974 22.5522C1.7342 21.067 0.137362 15.521 0.0686811 15.2892L0 15.0488L0.240384 14.9887C0.480768 14.9286 6.07828 13.5464 8.65382 15.023C9.91583 15.7528 10.886 16.8259 11.3753 18.045C11.8732 19.2812 11.8303 20.5261 11.2465 21.5391C10.6627 22.5522 9.60677 23.2132 8.28466 23.4021C8.03569 23.4364 7.78672 23.4536 7.52916 23.4536ZM0.609545 15.4008C0.95295 16.4911 2.43818 20.9124 4.55012 22.1315C5.7177 22.8097 7.02264 23.0845 8.21597 22.9213C9.38355 22.7582 10.3107 22.183 10.8259 21.2987C11.3324 20.4145 11.3753 19.3242 10.9289 18.2253C10.4739 17.1092 9.58101 16.1219 8.41343 15.4437C6.30149 14.2246 1.72561 15.1518 0.609545 15.4008Z" fill="#592FA3"></path><path d="M5.24552 30.9399C2.85027 30.9399 0.403501 30.3303 0.248969 30.296L0.00858514 30.2359L0.0772662 29.9955C0.145947 29.7637 1.75137 24.2177 4.31832 22.7325C5.58034 22.0027 6.9883 21.7023 8.29324 21.8825C9.61535 22.0714 10.6713 22.7325 11.2551 23.7455C11.8389 24.7586 11.8904 26.0034 11.3839 27.2397C10.8945 28.4588 9.92442 29.5319 8.6624 30.2616C7.76955 30.7767 6.5247 30.9484 5.2541 30.9484L5.24552 30.9399ZM0.609545 29.8839C1.72561 30.1329 6.30149 31.0515 8.41343 29.841C9.58101 29.1627 10.4739 28.1754 10.9289 27.0594C11.3753 25.9605 11.3324 24.8702 10.8259 23.9859C10.3193 23.1016 9.39214 22.5264 8.21597 22.3633C7.02264 22.1916 5.7177 22.4749 4.55012 23.1531C2.43818 24.3722 0.95295 28.7936 0.609545 29.8839Z" fill="#592FA3"></path><path d="M13.1524 37.8251L12.9807 37.6448C12.809 37.4731 8.80835 33.3094 8.80835 30.3389C8.80835 27.3684 10.7572 24.8444 13.1524 24.8444C15.5477 24.8444 17.4965 27.3083 17.4965 30.3389C17.4965 33.3695 13.4958 37.4646 13.3241 37.6448L13.1524 37.8251ZM13.1524 25.3338C11.0233 25.3338 9.28912 27.5831 9.28912 30.3475C9.28912 32.7857 12.3712 36.2884 13.1524 37.1297C13.9251 36.2884 17.0157 32.7857 17.0157 30.3475C17.0157 27.5831 15.2815 25.3338 13.1524 25.3338Z" fill="#592FA3"></path><path d="M21.0593 30.9399C19.7887 30.9399 18.5353 30.7682 17.651 30.253C15.024 28.7335 13.865 25.8145 15.0669 23.7369C16.2688 21.6593 19.3767 21.2043 22.0037 22.7239C24.5707 24.2091 26.1761 29.7551 26.2448 29.9869L26.3134 30.2273L26.0731 30.2874C25.9185 30.3303 23.4718 30.9313 21.0765 30.9313L21.0593 30.9399ZM18.7757 22.3118C17.3677 22.3118 16.1229 22.887 15.4876 23.9859C14.423 25.8317 15.5048 28.4502 17.9 29.8324C20.012 31.0515 24.5878 30.1329 25.7039 29.8753C25.3605 28.785 23.8753 24.3636 21.7633 23.1446C20.7932 22.5865 19.7458 22.3118 18.7843 22.3118H18.7757Z" fill="#592FA3"></path><path d="M18.7843 23.4536C18.5267 23.4536 18.2778 23.4365 18.0288 23.4021C16.7067 23.2132 15.6507 22.5522 15.0669 21.5391C13.865 19.4615 15.0326 16.5426 17.651 15.023C20.218 13.5378 25.8241 14.9286 26.0645 14.9887L26.3049 15.0488L26.2362 15.2892C26.1675 15.521 24.5621 21.067 21.9951 22.5522C20.9735 23.1446 19.8574 23.4536 18.7757 23.4536H18.7843ZM21.0336 14.8341C19.8488 14.8341 18.6984 14.9887 17.9 15.4523C15.5048 16.8345 14.423 19.4615 15.4876 21.2988C15.9941 22.183 16.9213 22.7582 18.0975 22.9213C19.2908 23.093 20.5957 22.8097 21.7633 22.1315C23.8753 20.9124 25.3605 16.4911 25.7039 15.4008C25.0085 15.2462 22.9824 14.8341 21.0422 14.8341H21.0336Z" fill="#592FA3"></path><path d="M13.1524 23.7112C12.6373 23.7112 12.2081 23.2905 12.2081 22.7668C12.2081 22.2431 12.6287 21.8224 13.1524 21.8224C13.6761 21.8224 14.0968 22.2431 14.0968 22.7668C14.0968 23.2905 13.6761 23.7112 13.1524 23.7112ZM13.1524 22.3118C12.9035 22.3118 12.6974 22.5178 12.6974 22.7668C12.6974 23.0158 12.9035 23.2218 13.1524 23.2218C13.4014 23.2218 13.6074 23.0158 13.6074 22.7668C13.6074 22.5178 13.4014 22.3118 13.1524 22.3118Z" fill="#592FA3"></path><path d="M190.83 20.4317C188.435 20.4317 186.486 17.9677 186.486 14.9372C186.486 11.9066 190.487 7.8115 190.659 7.63121L190.83 7.45093L191.002 7.63121C191.174 7.80292 195.174 11.9667 195.174 14.9372C195.174 17.9076 193.226 20.4317 190.83 20.4317ZM190.83 8.15491C190.058 8.99625 186.967 12.499 186.967 14.9372C186.967 17.7016 188.701 19.9509 190.83 19.9509C192.96 19.9509 194.694 17.7016 194.694 14.9372C194.694 12.499 191.612 8.99625 190.83 8.15491Z" fill="#592FA3"></path><path d="M185.207 23.4536C184.125 23.4536 183.009 23.1446 181.988 22.5522C179.421 21.067 177.815 15.521 177.747 15.2892L177.678 15.0488L177.918 14.9887C178.159 14.9286 183.756 13.5464 186.332 15.023C187.594 15.7528 188.564 16.8259 189.053 18.045C189.551 19.2812 189.508 20.5261 188.924 21.5391C188.341 22.5522 187.285 23.2132 185.963 23.4021C185.714 23.4364 185.465 23.4536 185.207 23.4536ZM178.296 15.4008C178.64 16.4911 180.125 20.9124 182.237 22.1315C183.404 22.8097 184.709 23.0845 185.903 22.9213C187.07 22.7582 187.997 22.183 188.512 21.2987C189.019 20.4145 189.062 19.3242 188.615 18.2253C188.16 17.1092 187.268 16.1219 186.1 15.4437C183.988 14.2246 179.412 15.1518 178.296 15.4008Z" fill="#592FA3"></path><path d="M182.923 30.9399C180.528 30.9399 178.081 30.3303 177.927 30.296L177.687 30.2359L177.755 29.9955C177.824 29.7637 179.429 24.2177 181.996 22.7325C183.258 22.0027 184.666 21.7023 185.971 21.8825C187.293 22.0714 188.349 22.7325 188.933 23.7455C189.517 24.7586 189.568 26.0034 189.062 27.2397C188.573 28.4588 187.602 29.5319 186.34 30.2616C185.448 30.7767 184.203 30.9484 182.932 30.9484L182.923 30.9399ZM178.288 29.8839C179.404 30.1329 183.979 31.0515 186.091 29.841C187.259 29.1627 188.152 28.1754 188.607 27.0594C189.053 25.9605 189.01 24.8702 188.504 23.9859C187.997 23.1016 187.07 22.5264 185.894 22.3633C184.701 22.1916 183.396 22.4749 182.228 23.1531C180.116 24.3722 178.631 28.7936 178.288 29.8839Z" fill="#592FA3"></path><path d="M190.83 37.8251L190.659 37.6448C190.487 37.4731 186.486 33.3094 186.486 30.3389C186.486 27.3684 188.435 24.8444 190.83 24.8444C193.226 24.8444 195.174 27.3083 195.174 30.3389C195.174 33.3695 191.174 37.4646 191.002 37.6448L190.83 37.8251ZM190.83 25.3338C188.701 25.3338 186.967 27.5831 186.967 30.3475C186.967 32.7857 190.049 36.2884 190.83 37.1297C191.603 36.2884 194.694 32.7857 194.694 30.3475C194.694 27.5831 192.96 25.3338 190.83 25.3338Z" fill="#592FA3"></path><path d="M198.746 30.9399C197.475 30.9399 196.222 30.7682 195.338 30.253C192.711 28.7335 191.552 25.8145 192.753 23.7369C193.955 21.6593 197.063 21.2043 199.69 22.7239C202.257 24.2091 203.863 29.7551 203.931 29.9869L204 30.2273L203.76 30.2874C203.605 30.3303 201.158 30.9313 198.763 30.9313L198.746 30.9399ZM196.462 22.3118C195.054 22.3118 193.809 22.887 193.174 23.9859C192.11 25.8317 193.191 28.4502 195.587 29.8324C197.699 31.0515 202.274 30.1329 203.39 29.8753C203.047 28.785 201.562 24.3636 199.45 23.1446C198.48 22.5865 197.432 22.3118 196.471 22.3118H196.462Z" fill="#592FA3"></path><path d="M196.462 23.4536C196.205 23.4536 195.956 23.4365 195.707 23.4021C194.385 23.2132 193.329 22.5522 192.745 21.5391C191.543 19.4615 192.711 16.5426 195.329 15.023C197.896 13.5378 203.502 14.9286 203.742 14.9887L203.983 15.0488L203.914 15.2892C203.845 15.521 202.24 21.067 199.673 22.5522C198.651 23.1446 197.535 23.4536 196.454 23.4536H196.462ZM198.712 14.8341C197.527 14.8341 196.376 14.9887 195.578 15.4523C193.183 16.8345 192.101 19.4615 193.166 21.2988C193.672 22.183 194.599 22.7582 195.775 22.9213C196.969 23.093 198.274 22.8097 199.441 22.1315C201.553 20.9124 203.038 16.4911 203.382 15.4008C202.686 15.2462 200.66 14.8341 198.72 14.8341H198.712Z" fill="#592FA3"></path><path d="M190.83 23.7112C190.315 23.7112 189.886 23.2905 189.886 22.7668C189.886 22.2431 190.307 21.8224 190.83 21.8224C191.354 21.8224 191.775 22.2431 191.775 22.7668C191.775 23.2905 191.354 23.7112 190.83 23.7112ZM190.83 22.3118C190.581 22.3118 190.375 22.5178 190.375 22.7668C190.375 23.0158 190.581 23.2218 190.83 23.2218C191.079 23.2218 191.285 23.0158 191.285 22.7668C191.285 22.5178 191.079 22.3118 190.83 22.3118Z" fill="#592FA3"></path></svg>