<svg xmlns="http://www.w3.org/2000/svg" width="55" height="42" viewBox="0 0 55 42" fill="none"><path d="M18.8889 36.9542C18.444 36.9542 18.0833 37.3142 18.0833 37.7583V41.1958C18.0833 41.6399 18.444 41.9999 18.8889 41.9999C19.3339 41.9999 19.6946 41.6399 19.6946 41.1958V37.7583C19.6946 37.3142 19.3339 36.9542 18.8889 36.9542Z" fill="#7B4BD5"></path><path d="M36.111 36.9542C35.666 36.9542 35.3053 37.3142 35.3053 37.7583V41.1958C35.3053 41.6399 35.666 41.9999 36.111 41.9999C36.5559 41.9999 36.9166 41.6399 36.9166 41.1958V37.7583C36.9166 37.3142 36.5559 36.9542 36.111 36.9542Z" fill="#7B4BD5"></path><path d="M12.3603 19.8511C10.4894 18.9176 6.98176 18.9068 6.83331 18.9068C6.38847 18.9068 6.02786 19.2666 6.02775 19.7107C6.02764 20.1547 6.38815 20.5148 6.83309 20.515C7.73952 20.5155 10.3697 20.6558 11.6397 21.2895C11.7554 21.3473 11.8783 21.3745 11.9993 21.3745C12.2948 21.3745 12.5794 21.2115 12.7206 20.9299C12.9196 20.5327 12.7583 20.0497 12.3603 19.8511Z" fill="#7B4BD5"></path><path d="M4.25003 35.2354C3.80509 35.2354 3.44437 35.5954 3.44437 36.0395V41.1959C3.44437 41.64 3.80509 42 4.25003 42C4.69497 42 5.05569 41.64 5.05569 41.1959V36.0395C5.05569 35.5955 4.69508 35.2354 4.25003 35.2354Z" fill="#7B4BD5"></path><path d="M53.1265 32.2325L49.8638 30.6046C49.8449 30.5952 49.8331 30.5761 49.8331 30.5551L49.8333 28.9186C51.1727 27.9982 52.1207 26.5431 52.3579 24.8355C52.9603 23.7965 53.2777 22.623 53.2777 21.4298C53.2777 19.2047 52.2041 17.2254 50.5472 15.9798C50.6443 15.657 50.6944 15.324 50.6944 14.9843C50.6944 12.8823 48.7878 11.1723 46.4444 11.1723C44.101 11.1723 42.1944 12.8823 42.1944 14.9843C42.1944 15.3245 42.244 15.6576 42.3411 15.9802C41.3532 16.7229 40.5741 17.7272 40.1051 18.8883C39.9054 16.9297 39.6975 14.6143 39.498 11.9171C39.2348 8.35845 37.9524 5.35316 35.7896 3.22635C33.6432 1.11562 30.7766 0 27.4999 0C24.2233 0 21.3567 1.11562 19.2105 3.22624C17.0477 5.35316 15.7653 8.35845 15.5021 11.917C15.4322 12.8619 15.3613 13.7574 15.2901 14.6098H7.69451C4.87619 14.6098 2.58328 16.8982 2.58328 19.7109V19.7588C2.58328 20.4139 2.73839 21.0699 3.03198 21.6558L3.44437 22.4791V23.7918C3.44437 25.8723 4.47164 27.7392 6.02764 28.8626V30.0239C6.02764 30.1728 5.92742 30.3053 5.78401 30.3463L2.45792 31.2947C1.01073 31.7073 0 33.0446 0 34.5467V41.1959C0 41.64 0.360722 42 0.805663 42C1.2506 42 1.61133 41.64 1.61133 41.1959V34.5467C1.61133 33.7587 2.14156 33.0573 2.9006 32.8408L6.2268 31.8923C6.34679 31.8581 6.46077 31.8117 6.56926 31.7566L8.61103 33.7943V41.1959C8.61103 41.64 8.97175 42 9.41669 42C9.86163 42 10.2224 41.64 10.2224 41.1959V33.7943L12.2784 31.7423C12.5532 31.8769 12.827 31.9552 13.0277 32.0124L13.8444 32.2453C12.7376 33.0307 12.0555 34.3117 12.0555 35.7008V41.1957C12.0555 41.6398 12.4162 41.9998 12.8612 41.9998C13.3061 41.9998 13.6668 41.6398 13.6668 41.1957V35.7008C13.6668 34.6585 14.2842 33.713 15.2396 33.2918L19.8458 31.2614C21.2893 34.1463 24.2388 35.9841 27.5001 35.9841C30.7734 35.9841 33.7131 34.1504 35.1557 31.262L39.7605 33.2918C40.7159 33.713 41.3333 34.6585 41.3333 35.7008V41.1957C41.3333 41.6398 41.694 41.9998 42.1389 41.9998C42.5839 41.9998 42.9446 41.6398 42.9446 41.1957V35.7008C42.9446 34.6723 42.57 33.7033 41.9271 32.9501L43.174 32.3279L44.1099 33.2156C44.7645 33.8366 45.6044 34.1468 46.4445 34.1468C47.2843 34.1468 48.1246 33.8364 48.779 33.2156L49.7149 32.328L52.406 33.6708C53.0122 33.9733 53.3887 34.5813 53.3887 35.2577V41.1958C53.3887 41.6399 53.7494 41.9999 54.1943 41.9999C54.6393 41.9999 55 41.6399 55 41.1958V35.2577C54.9999 33.9684 54.282 32.8092 53.1265 32.2325ZM46.4443 12.7803C47.8992 12.7803 49.083 13.769 49.083 14.9842C49.083 15.0351 49.0789 15.0856 49.0748 15.136C48.2647 14.7974 47.3761 14.6098 46.4443 14.6098C45.5126 14.6098 44.6241 14.7974 43.8142 15.1359C43.81 15.0855 43.8056 15.0351 43.8056 14.9842C43.8056 13.769 44.9894 12.7803 46.4443 12.7803ZM9.4168 32.3243L7.58096 30.4921C7.61888 30.3411 7.63918 30.1841 7.63918 30.0238V29.6846C8.146 29.8506 8.68053 29.9492 9.23364 29.9657C9.29563 29.9676 9.35729 29.9685 9.41905 29.9685C10.0301 29.9685 10.6266 29.8764 11.1942 29.7007V30.0235C11.1942 30.1979 11.2121 30.3561 11.244 30.5007L9.4168 32.3243ZM9.28198 28.3581C6.95158 28.2885 5.05569 26.2399 5.05569 23.7918V22.2892C5.05569 22.1644 5.02658 22.0412 4.97062 21.9296L4.47315 20.9366C4.29096 20.5728 4.1946 20.1656 4.1946 19.7588V19.7109C4.1946 17.7849 5.76468 16.2179 7.69451 16.2179H14.6389V19.5559C14.6389 20.0953 14.5112 20.6355 14.2694 21.1179L13.8628 21.9295C13.8068 22.0412 13.7777 22.1643 13.7777 22.2891V24.0079C13.7777 25.1951 13.3074 26.3045 12.4534 27.1315C11.5998 27.9581 10.4729 28.3941 9.28198 28.3581ZM16.0155 31.1918L13.4704 30.4661C12.8054 30.2766 12.8055 30.2026 12.8055 30.0237L12.8057 28.9159C13.0763 28.7288 13.3344 28.5194 13.5757 28.2856C13.7382 28.1283 13.8894 27.9628 14.0312 27.7913C14.1606 28.0533 14.3591 28.2822 14.6155 28.4478C15.2613 28.8652 16.48 29.5585 18.2722 30.197L16.0155 31.1918ZM27.4999 34.376C24.8786 34.376 22.5046 32.9137 21.3207 30.6114L22.4935 30.0944C23.4087 29.691 24 28.7852 24 27.7867V25.8573C25.0825 26.2914 26.2637 26.5308 27.4999 26.5308C28.7362 26.5308 29.9173 26.2914 30.9999 25.8573V27.7867C30.9999 28.7852 31.5912 29.6911 32.5064 30.0944L33.6789 30.6113C32.4959 32.9162 30.131 34.376 27.4999 34.376ZM34.486 29.209L33.1574 28.6233C32.8256 28.4771 32.6112 28.1486 32.6112 27.7865V25.0222C35.2003 23.3457 36.9167 20.4355 36.9167 17.1326V15.625C36.9167 14.6451 36.4993 13.7207 35.7714 13.089C34.1527 11.684 30.4884 9.23199 24.1357 8.59795C23.6941 8.55378 23.2981 8.87605 23.2539 9.31807C23.2096 9.75999 23.5327 10.154 23.9754 10.1982C29.8842 10.7878 33.2397 13.0228 34.7141 14.3025C35.0899 14.6287 35.3054 15.1108 35.3054 15.625V17.1326C35.3054 21.428 31.8039 24.9226 27.5001 24.9226C23.1962 24.9226 19.6947 21.428 19.6947 17.1326V16.46C19.6947 16.151 19.8663 15.868 20.1538 15.7028C21.1611 15.124 22.4895 14.0517 23.0978 12.2305C23.2385 11.8093 23.0104 11.3539 22.5882 11.2134C22.1662 11.073 21.7098 11.3007 21.5691 11.722C21.1209 13.0639 20.1148 13.8695 19.3498 14.3092C18.5686 14.7581 18.0833 15.5823 18.0833 16.4601V17.1328C18.0833 20.4358 19.7996 23.3458 22.3888 25.0223V27.7867C22.3888 28.1487 22.1744 28.4771 21.8426 28.6234L20.5139 29.2091C17.919 28.5162 16.2563 27.5924 15.4912 27.0981C15.4759 27.0882 15.4673 27.0769 15.4716 27.0515C15.7526 25.3936 16.4747 20.6116 17.1092 12.0355C17.3431 8.87123 18.4608 6.22102 20.3415 4.37166C22.18 2.5638 24.6553 1.60814 27.4999 1.60814C30.3446 1.60814 32.8199 2.5638 34.6584 4.37166C36.5391 6.22102 37.6568 8.87112 37.8908 12.0354C38.5252 20.6112 39.2473 25.3934 39.5284 27.0514C39.5327 27.0769 39.5241 27.0882 39.5087 27.0981C38.7425 27.593 37.0798 28.5163 34.486 29.209ZM43.0554 30.555C43.0554 30.5761 43.0436 30.5951 43.0247 30.6045L40.5005 31.8641C40.4706 31.8501 40.4418 31.8343 40.4115 31.8209L36.7279 30.1972C38.5193 29.5589 39.7377 28.8659 40.3844 28.448C40.94 28.089 41.2277 27.4357 41.1171 26.7833C41.1111 26.7476 41.1046 26.7085 41.0981 26.6699C41.5512 27.5792 42.2287 28.3506 43.0554 28.9186V30.555ZM47.6687 32.05C46.9822 32.7014 45.9064 32.7013 45.2197 32.05L44.4709 31.3399C44.5972 31.1036 44.6666 30.8356 44.6666 30.555V29.6994C45.2292 29.8736 45.8261 29.9684 46.4442 29.9684C47.0622 29.9684 47.6591 29.8736 48.2217 29.6994L48.2216 30.5548C48.2216 30.8356 48.291 31.1036 48.4174 31.34L47.6687 32.05ZM46.4443 28.3601C44.2136 28.3601 42.3505 26.693 42.1106 24.4823C42.0977 24.3638 42.0587 24.2497 41.9962 24.1481C41.4898 23.325 41.2222 22.385 41.2222 21.4296C41.2222 18.556 43.5648 16.2179 46.4443 16.2179C49.3237 16.2179 51.6664 18.556 51.6664 21.4297C51.6664 21.9836 51.5758 22.5323 51.4015 23.0562C49.1138 20.7367 45.0895 19.8277 44.8955 19.785C44.6572 19.7326 44.4078 19.7909 44.2174 19.9435C44.0272 20.0961 43.9164 20.3266 43.9164 20.5702C43.9164 20.5755 43.8797 21.1333 43.2914 21.7204C42.9767 22.0345 42.9767 22.5436 43.2914 22.8575C43.606 23.1715 44.1161 23.1715 44.4307 22.8575C44.8838 22.4053 45.15 21.9463 45.3062 21.5588C46.6618 21.9607 49.4755 22.9758 50.7383 24.7575C50.3799 26.8297 48.5812 28.3601 46.4443 28.3601Z" fill="#7B4BD5"></path><path d="M50.7499 36.2979C50.3049 36.2979 49.9442 36.6579 49.9442 37.1019V41.1959C49.9442 41.64 50.3049 42 50.7499 42C51.1948 42 51.5555 41.64 51.5555 41.1959V37.1019C51.5555 36.6579 51.1948 36.2979 50.7499 36.2979Z" fill="#7B4BD5"></path></svg>